<?xml version="1.0" encoding="UTF-8" standalone="no"?>
<!-- Created with Inkscape (http://www.inkscape.org/) -->

<svg
   width="183.67662mm"
   height="30mm"
   viewBox="0 0 183.67662 30"
   version="1.1"
   id="svg11960"
   xml:space="preserve"
   inkscape:version="1.2.1 (9c6d41e410, 2022-07-14)"
   sodipodi:docname="Logo.svg"
   xmlns:inkscape="http://www.inkscape.org/namespaces/inkscape"
   xmlns:sodipodi="http://sodipodi.sourceforge.net/DTD/sodipodi-0.dtd"
   xmlns="http://www.w3.org/2000/svg"
   xmlns:svg="http://www.w3.org/2000/svg"><sodipodi:namedview
     id="namedview11962"
     pagecolor="#ffffff"
     bordercolor="#000000"
     borderopacity="0.25"
     inkscape:showpageshadow="2"
     inkscape:pageopacity="0.0"
     inkscape:pagecheckerboard="0"
     inkscape:deskcolor="#d1d1d1"
     inkscape:document-units="mm"
     showgrid="false"
     showguides="false"
     inkscape:zoom="0.86048189"
     inkscape:cx="368.97929"
     inkscape:cy="109.24111"
     inkscape:window-width="1600"
     inkscape:window-height="837"
     inkscape:window-x="-8"
     inkscape:window-y="-8"
     inkscape:window-maximized="1"
     inkscape:current-layer="layer1"><sodipodi:guide
       position="-47.310285,214.17486"
       orientation="1,0"
       id="guide12081"
       inkscape:locked="false" /></sodipodi:namedview><defs
     id="defs11957"><filter
       style="color-interpolation-filters:sRGB;"
       inkscape:label="Drop Shadow"
       id="filter15197"
       x="-1.4018321"
       y="-1.4562633"
       width="3.8036641"
       height="3.9125265"><feFlood
         flood-opacity="1"
         flood-color="rgb(255,182,153)"
         result="flood"
         id="feFlood15187" /><feComposite
         in="flood"
         in2="SourceGraphic"
         operator="in"
         result="composite1"
         id="feComposite15189" /><feGaussianBlur
         in="composite1"
         stdDeviation="9.34579"
         result="blur"
         id="feGaussianBlur15191" /><feOffset
         dx="0"
         dy="0"
         result="offset"
         id="feOffset15193" /><feComposite
         in="SourceGraphic"
         in2="offset"
         operator="over"
         result="composite2"
         id="feComposite15195" /></filter><filter
       style="color-interpolation-filters:sRGB;"
       inkscape:label="Drop Shadow"
       id="filter15209"
       x="-0.14834909"
       y="-1.323307"
       width="1.2966982"
       height="3.6466139"><feFlood
         flood-opacity="1"
         flood-color="rgb(255,182,153)"
         result="flood"
         id="feFlood15199" /><feComposite
         in="flood"
         in2="SourceGraphic"
         operator="in"
         result="composite1"
         id="feComposite15201" /><feGaussianBlur
         in="composite1"
         stdDeviation="9.34579"
         result="blur"
         id="feGaussianBlur15203" /><feOffset
         dx="0"
         dy="0"
         result="offset"
         id="feOffset15205" /><feComposite
         in="SourceGraphic"
         in2="offset"
         operator="over"
         result="composite2"
         id="feComposite15207" /></filter></defs><g
     inkscape:label="Layer 1"
     inkscape:groupmode="layer"
     id="layer1"
     transform="translate(-13.827123,-70.212432)"><text
       xml:space="preserve"
       style="font-weight:bold;font-size:17.6389px;font-family:sans-serif;-inkscape-font-specification:'sans-serif Bold';fill:#ff6c33;stroke-width:1.5;filter:url(#filter15209)"
       x="44.670601"
       y="91.678001"
       id="text12085"><tspan
         sodipodi:role="line"
         id="tspan12083"
         style="stroke-width:1.5"
         x="44.670601"
         y="91.678001">Dashboard-App</tspan></text><g
       style="fill:#ff6c33;fill-opacity:1;filter:url(#filter15197)"
       id="g12123"
       transform="matrix(1.947753,0,0,1.947753,13.827933,70.211812)"><path
         d="m 14.12,10.163 1.715,0.858 c 0.22,0.11 0.22,0.424 0,0.534 L 8.267,15.34 a 0.6,0.6 0 0 1 -0.534,0 L 0.165,11.555 a 0.299,0.299 0 0 1 0,-0.534 l 1.716,-0.858 5.317,2.659 c 0.505,0.252 1.1,0.252 1.604,0 l 5.317,-2.66 z M 7.733,0.063 a 0.6,0.6 0 0 1 0.534,0 l 7.568,3.784 a 0.3,0.3 0 0 1 0,0.535 L 8.267,8.165 a 0.6,0.6 0 0 1 -0.534,0 L 0.165,4.382 a 0.299,0.299 0 0 1 0,-0.535 z"
         id="path12111"
         style="fill:#ff6c33;fill-opacity:1" /><path
         d="m 14.12,6.576 1.715,0.858 c 0.22,0.11 0.22,0.424 0,0.534 l -7.568,3.784 a 0.6,0.6 0 0 1 -0.534,0 L 0.165,7.968 a 0.299,0.299 0 0 1 0,-0.534 L 1.881,6.576 7.198,9.235 c 0.505,0.252 1.1,0.252 1.604,0 z"
         id="path12113"
         style="fill:#ff6c33;fill-opacity:1" /></g></g></svg>
