<?xml version="1.0"?>
    
<!--********* Copyright (c) 2024 Pareto Softare, LLC DBA Simplemaps.com ***************************************
************* Free for Commercial Use, full terms at  https://simplemaps.com/resources/svg-license ************
************* Attribution is appreciated! https://simplemaps.com *******************************************-->

<svg baseprofile="tiny" fill="#6f9c76" height="786" stroke="#ffffff" stroke-linecap="round" stroke-linejoin="round" stroke-width=".5" version="1.2" viewbox="0 0 1000 786" width="1000" xmlns="http://www.w3.org/2000/svg">
 <g id="features">
  <path d="M397.8 633.9l-3.1-0.7-1.1 0.2-3.3 1.9-0.6 0.2-0.4-0.2-0.3-0.3-0.6-0.3-16.2-6.5-16.3-6.5-1.9-0.4-8.5 1.5-1.6 0.8-0.6 0.9-1 2.2-0.8 0.9-1.7 1.3-0.7 0.3-2 0.3-8.2-0.3-5.8 1-3.4-0.2-1.3-0.6-1.3-1.2-1.3-0.6-1.8 0.2-11.5 2.8-3.3-10.3-5.4-9-0.3-0.8-2.3-20-0.5-2.3-4.4-9-1.3-1.5-3.9-2.5-8.1-13.6-0.5-1.2-0.1-2.6 0.2-8.3-12.8-36.8-0.1-0.1-0.4-0.7 0.7-1.8 0.5-2.3 0.5-5.8 0.4-1.1 0.9-1.4 3.3-3.3 0.1-0.2 0-0.2 0-0.3 0-0.1 0-0.1-0.1-0.1 0-0.1-0.7-1.7-0.2-1.7 0.2-1.6 5.1-12.7 0.9-1.4 1.1-1.2 1.4-1 2.5-1.3 0.8-0.8 0.4-1.4 0-6.6 0-5.2-0.1-8 0-3.8 0.2-0.5 0.7-1.2 0.3-0.7-0.3-5.9 0-1 0.4-1.1 0.4-0.2 0.2 0 0.4 0 0.8-0.6 0-0.1 0-6.2 0-3.8 0-7.4-0.1-7.5 0-7.4 0-7.5 0-7.4-0.1-7.5 0-4.2 0-1.7 0.4 0 0.2-0.1 0-2.2 0-2 0-4.5 0-4.4 0-4.3 0-4.5 0-4.2-0.1-4.6 0.1-4.3 0-3.8 0.1 0 30.2 0.4 5.4 1.6-7.5 15.8-0.5 1.5-0.1 0.4 0 0.4 0.1 0.7 0.2 1.4 0.3 0.9 0.2 0.7 0 0.3 0 0.4-0.1 0.3-0.4 1.3-0.1 0.3 0.6 7.2-0.1 0.8-1.7 2.7-0.4 0.7 0 0.8 0.1 0.3 0.2 0.6 0.3 0.7 0.5 1.1 0.9 0.4 1 0.2 6.1 0.5 0.8 0.3 0.4 0.8 1.2 6.1 0.4 0.9 0.8 0.8 10 8.4 7.6 10.4 1.3 1.2 1.2 1 30.7 19.4 12.9 9.8 5.1 5.8 0.2 0.4 12.6 30.4 0.2 0.6 0.9 1.8 0.4 0.4 0.3 0.4 3.9 3 0.8 0.5 0.4 0.1 8.9 2.4 1 0.5 0.2 0.8 0.1 1-1.3 9.7 3.4 34.1-8.1 30.1-0.1 1.2 0 1.1-3.4 27.9 0.2 1.9 0.3 1.5 1.8 4.3 0.2 0.6 0.2 1.4 0.4 1.6 0.2 0.6 0.1 2.9-0.5 6.3-0.3 1.1-0.2 0.2-0.8 0.5-0.5 0.2-1.9 0.4-0.3 0.1-0.3 0.1-0.3 0.2-0.6 0.7-0.6 0.5-3.7 2.6-0.8 0.8-0.5 0.7 0 0.9 0.7 3.1 0 1-0.7 1-1.8 1.9-0.8 0.9-0.2 1-0.1 1 0 3.3 0 1z" id="NE5" name="Tahoua">
  </path>
  <path d="M200.1 708.7l-1.2-0.5-2.1-1.2-1.2-0.3-1.3-0.6-0.6-1.3-0.2-1.7-0.1-1.4-0.1-0.9-0.4-0.5-0.5-0.2-0.6 0.1-0.2 0.3-0.3 0.4-0.1 0.4-0.1 0.4-0.2 0.4-0.3 0.1-0.3-0.2-0.1-0.1-2.3 0-0.2-0.6 0-1.6-0.2-0.7-0.2-1.1-0.3-4 0-1.6 0.3-1.3 0.2-1.2 0-0.7-0.1-0.7-1-3.8-0.1-0.7-0.1-0.7 0.1-0.8 0.1-0.3 0.2-0.4 0.4-0.4 0.8-0.8 0.9-0.6 1.3-0.7 0.3-0.1 2-1.7 0.9-0.6 0.2-0.3 0.1-0.5-0.3-1-0.6-0.4-0.9-0.3-8.8-0.9-0.3 0-0.1-0.1-3.5-8-0.1-0.4 0-0.3 0.1-0.4 0.2-0.4 0.4-0.6 0.7-0.8 0.6-0.5 0.7-0.4 0.5-0.1 0.4-0.1 0.3 0.1 1.4 0.3 0.6 0.1 0.8 0 0.3-0.1 0.6-0.2 0.6-0.2 0.3-0.2 5-3.9 1.9-0.5 0.8 0 1.2 0.2 0.2 0 0.2 0.1 0.7 0.5 0.6 0.2 0.4 0.1 0.3 0 0.4-0.3 0.4-0.3 1.1-1.7 0.8-2.4 0.6-2.7 0-0.4-0.1-0.3-0.5-1.1-0.1-0.3 0-0.3 0.1-0.7 0.4-1.3 0.3-1.3 0.1-1.2 0.2-0.3 0.2-0.3 1.2-0.4 1.6-0.3 0.9-0.3 0.5-0.7 1.2-2.8 0.4-0.7 0.6-0.3 0.3-0.1 4 0 1-0.1 0.8-0.2 0.4-0.9 0.3-0.9 1-5 0.7-1.6 1-1.8 0.6-0.6 0.8 0 0.9 0.3 5.9 2.5 0.9 0.3 0.6-0.1 9.6-4.2 1.9-1.1 10.6-9.9 1.1-1.4 0.4-1.2 2.1-9 0.3-0.9 0.2-0.6 1.7-2.4 7.9-6.8 0.8-0.4 0.9-0.4 0.6-0.1 0.8-0.1 1.5 0.1 0.5-0.1 4.4-2.1 0.9-0.6 0.8-0.7 0.6-1.9 0.5-0.5 0.5-0.2 1.6-0.5 1.7-1.9 1-7.1 3.9 2.5 1.3 1.5 4.4 9 0.5 2.3 2.3 20 0.3 0.8 5.4 9 3.3 10.3-6.8 1.7-3.1 1.2-2.7 2-9.1 8.7-1.6 0.8-1.7 0.3-3.7 0.1-0.1 14.1-0.2 1.4-1.8 12.7-9.2 14.4-3.7 3.6-12.6 9.5-0.2 0.6 0.5 14.7-1.5 7.7 0 2.6 1.4 4.3 0.2 2-0.9 1.9-1 1-0.6 0.9-0.3 1 0.3 3.3 0.2 0.6 0.3 0.6 0.2 0.2 0.3 0.1 1.3 1.5 0.7 1.1 0.3 1.1-0.4 1.3-0.7 0.7-2.9 1.8-0.4-0.4-0.6-0.9-0.5-0.3-0.2-0.4-0.1-0.5-0.2-0.5-0.3-0.9-0.2-0.5-0.2-0.2-0.4-0.2-0.4-0.3-1.9-2.8-0.4-0.5-0.7-0.4-2.1-0.8-2.6-1.6-0.6-0.2-0.6-0.3-0.7-0.2-0.8 0.5-0.8 0.4-0.8-0.2-0.7-0.5-0.5-0.5-0.8-0.9-1.3-2.2-0.4-1.1-0.3-1.3-0.1-1.3-0.2-0.3-0.8-0.6-0.2-0.3-9.9-9.1-2.3-3.4-0.6-1.1-0.2-0.3-0.5-0.2-1.9-0.2-0.6-0.3-0.7-0.3-0.4-0.5-0.4-1.3-0.5-0.7-0.5-0.7-1.2-0.6-2.8-2.5z" id="NE3" name="Dosso">
  </path>
  <path d="M648.6 651.5l-0.1-0.3-1.9-6.8 0.2-0.9 0.4-1.4 10-10.4 0.4-0.7 0.2-0.4 0.1-0.5 0.1-0.7 0-1.6-0.1-1.2 0.1-0.5 0.3-0.4 23.3-21.7 1.2-0.8 0.7-0.1 0.8 0.3 2.3 1.3 0.7 0.3 0.5 0 0.7-0.1 10.5-3.3 14.4-9.4 0.8-0.4 0.5-0.1 4.8 0.3 0.8-0.2 0.7-0.3 3.9-2.8 0.4-0.5-0.3-0.5-2.3-0.8-0.7-0.4-0.4-0.5-0.3-0.6-0.3-0.9-0.2-0.9 0.2-1.4 0.2-0.7 0.3-0.7 0.5-0.6 1.6-1 1.6-0.8 1.1-0.1 0.1-0.2-0.2-172.9 1.2-0.7 0.9-0.8 11.7-8 43.8-20.7 147.1 0-0.1 2.6-0.1 1.9-0.1 0.3 0 0.4 0 1.8 0 0.1-0.1 1.6 0 0.6 0.1 0.2-0.2 0.7 0 0.3-0.1 1.5 0 0.2-0.1 1.9 0 0.2-0.2 2.8-0.3 2.7-0.2 2.8-0.2 2.7-0.3 2.8-0.2 2.7-0.2 2.8-0.3 2.7-0.2 2.8-0.2 2.7-0.3 2.8-0.2 2.7-0.2 2.7-0.2 2.8-0.3 2.7-0.2 2.8-0.2 2.7-0.3 2.8-0.1 1.5-0.2 0.7-0.2 0.6-0.7 1.1-2 2.1-3.2 3.5-3.2 3.5-3.2 3.5-3.3 3.5-3.2 3.5-3.2 3.5-3.2 3.5-3.3 3.5-3.2 3.5-3.2 3.5-3.2 3.5-3.3 3.5-3.2 3.5-3.2 3.5-3.2 3.5-3.3 3.4-2.2 2.4-3.4 3.7-3.1 3.4-1.6 2.3-1.7 2.4-1.8 2.5-1.7 2.4-1.7 2.4-1.7 2.5-1.7 2.4-1.7 2.4-1.8 2.4-1.7 2.5-1.7 2.4-1.7 2.4-1.7 2.4-1.7 2.5-1.7 2.4-1.8 2.4-1.7 2.4-1.6 2.4-1.5 3.2-1.9 4.1-0.9 1.8-0.3 1.1 0 1.3 0.2 1.2 0.8 2.6 0.1 1.2-0.5 1.4-0.9 0.4-1.1 0.1-1.2 0.3-0.5 0.4-1.9 2.1-1.1 0.8-0.2 0.3 0.1 0.3 0.6 0.6 0.2 0.3 0.3 2.3 0 1.1-0.5 1.1-1.9 1.6-0.9 0.2-1.4 0.3-2.3 0.1-2.1 0.9-1.5 0.7-1.8 2.7-0.1 3.5 1.1 4.1 0.8 3 0.6 2.8 0.4 1.8 0.5 1.9 0.4 1.9 0.4 1.9 0.4 1.9 0.4 1.9 0.4 1.9 0.4 1.9 0.5 1.8 0.4 1.9 0.4 1.9 0.4 1.9 0.4 1.9 0.4 1.9 0.4 1.9 0.4 1.8-14.2-0.6-1.7 0.3-0.5 0.4 0 1.1-0.9 0.6-2.3 2.1-0.4 0.6-0.3 0.6 0 0.2 0.3 0.4 0.1 0.4-0.2 0.4-0.4 0.1-0.4 0-0.2 0.1-0.5 0.8 0.1 0.3 0.8 0.1-1.1 1.4-1.4 0.5-1.5 0.3-1.5 0.7 0.2-0.5 0.1-0.6-0.1-0.5-0.6-0.1-0.3 0.3-0.4 0.9-0.5 0.5 0-0.7 0-0.2-0.9 0.3-1.1 0.1-0.6-0.2 0.3-0.6 0-0.4-1.6 0.2-1.5 0.5-5.2 2.6-1.5 0.3-1.6-0.4-0.3 1-0.5 0.1-0.7-0.4-0.9-0.2 0 0.4 0.4 0.1 0.4 0.3 0.4 0.3 0.4 0.5-0.8 0.6-1.6 1.8 0 0.2 0.1 0.5-0.1 0.1-0.2 0.1-0.5-0.1-0.1 0-0.3 0.2-0.7 0.2-0.2 0.3 0.2 0.6 0.4 0.5 0 0.2-0.8 0.1-0.1-0.2-0.3-0.4-0.4-0.3-0.1 0.2-0.1 0.1-0.4 0.9-1.5 1.9-0.9 0.7-1.3 0.3-0.7 0.3-0.4 1.4-0.5 0.3-0.9-0.2-0.5-0.4-0.5-0.5-0.6-0.5-0.1 1-0.1 0.3-0.4 0.4-0.4 0.3-0.4 0.1-0.2-0.3-0.3 0.2-2.1 2-0.2 1-0.7 1-0.4 0.9 0.9 0.4-0.4 1.3-0.3 0.6-0.4 0.5-0.5 0.2-1.3 0.2-0.2 0.2-0.5 3.2-0.3 0.7-0.8 0.3-0.9-0.1-1.1-0.4-1.3-0.2-1.6-0.1-2-0.1-1-0.3-0.5 0.4-0.4-0.3-0.5-0.5-0.5-0.4-0.6 0.1-0.3 0.3-0.3 0.3-0.2 0.1-0.5 0-0.1-0.3 0-0.3-0.2-0.4-0.7-0.3-2.9-1.1-0.9 0.2-1.2 0.9-0.8 0.1-2 0.2-3.3-0.9-1.2-0.5-2.6-2.1-8-4.9-6.4-2.7-17.3-4.4-28 0.2-10.5-1.3-5.5 0.5-1.6 0.3z" id="NE2" name="Diffa">
  </path>
  <path d="M397.8 633.9l0-1 0-3.3 0.1-1 0.2-1 0.8-0.9 1.8-1.9 0.7-1 0-1-0.7-3.1 0-0.9 0.5-0.7 0.8-0.8 3.7-2.6 0.6-0.5 0.6-0.7 0.3-0.2 0.3-0.1 0.3-0.1 1.9-0.4 0.5-0.2 0.8-0.5 0.2-0.2 0.3-1.1 0.5-6.3-0.1-2.9-0.2-0.6-0.4-1.6-0.2-1.4-0.2-0.6-1.8-4.3-0.3-1.5-0.2-1.9 3.4-27.9 0-1.1 0.1-1.2 8.1-30.1 22.9-0.8 3 0.2 11.5 6.2 3.7 2.2 0.8 2 0.3 8.3 0.3 1.2 2.3 4 0.6 1.9 1.9 9.8 0.3 0.8 0.5 0.7 1.1 1.2 0.5 0.8 1.3 3.8 0.8 0.9 0.9 0.7 5 2.7 0.8 0.6 0.5 0.6 0.2 0.8 0.3 7.4 0.1 0.8 0.3 0.8 0.7 0.6 2.9 1.3 0.9 0.3 0.8-0.1 0.9-0.6 5.3-4.7 0.9-0.5 0.9-0.2 3.2 0.1 0.5 0.1 0.3 0.2 1.9 3 0.9 1.1 0.5 0.3 2.2 1.1 0.7 0.2 1.1 0.5 1.9 1.5 0.3 0.1 0.3 0.1 1.2 0.1 0.6 0.3 0.9 0.5 2.9 2.8 0.3 0.2 2.3 1.1 0.7 0.4 0.7 0.6 0.2 0.3 0.2 0.5 0.2 0.6 0.4 2.1 0.1 0.4 0.4 0.6 7.1 5 0.9 0.9 0.3 0.9 0.1 1 0 1.9 0.1 0.8 0.1 0.7 0.4 1.1 0.3 2.2 0 2-0.1 1-0.3 0.8-0.7 0.5-16.4 8.4-0.3 0.3-0.2 0.2-0.2 0.2-0.2 0.4-0.3 0.8-0.1 0.3-0.1 0.7 0.1 0.8 0.2 0.6 0.5 0.9 0.8 0.7 1 0.5 2 0.9 0.8 0.5 0.6 0.6 0 0.8-1.3 4.6 0 0.9 1.4 8.3 0 1-0.4 1-3.5 6.5-0.3 0.4 0-0.1-1.7-0.4-0.9-0.4-1.9-1.6-1.6-0.9-1.3-1.3-0.7-0.6-1.6-0.6-14.6-2-1.9 0.1-2 0.9-20.9 12.7-1.8 0.6-2 0-6-1.1-1.3 0.2-3.5 4.1-2.7 2.5-1.3 0.6-0.3 0-1 0.2-4.3 0-1.9-0.2-1.8-0.7-1.8-1.4-2.1-1.9-3.4-4-1.5-2.6-4.6-8.6-9.4-10.4-8.1-7.7-3.8-2.2-1.1-0.2z" id="NE4" name="Maradi">
  </path>
  <path d="M726.2 405.2l0.2 172.9-0.1 0.2-1.1 0.1-1.6 0.8-1.6 1-0.5 0.6-0.3 0.7-0.2 0.7-0.2 1.4 0.2 0.9 0.3 0.9 0.3 0.6 0.4 0.5 0.7 0.4 2.3 0.8 0.3 0.5-0.4 0.5-3.9 2.8-0.7 0.3-0.8 0.2-4.8-0.3-0.5 0.1-0.8 0.4-14.4 9.4-10.5 3.3-0.7 0.1-0.5 0-0.7-0.3-2.3-1.3-0.8-0.3-0.7 0.1-1.2 0.8-23.3 21.7-0.3 0.4-0.1 0.5 0.1 1.2 0 1.6-0.1 0.7-0.1 0.5-0.2 0.4-0.4 0.7-10 10.4-0.4 1.4-0.2 0.9 1.9 6.8 0.1 0.3-27.9 6.1-2.4 1-10.9 6.1-1 1-0.3 0.6-0.2 1.5-0.3 0.6-0.4 0.4-0.2 0.1-0.3-0.1-0.6 0.3-1.2 0.7-1.9 1.8-9.8 11.7-0.4 0.5-0.7 0.6-0.6 0.4-0.4 0.2-1.2 0-12.2-1.4-1.1 0.1-3.1 0.8-2.1 0-16.7-1.9-2.1-0.3-15.1-4.5-2.1-1.2-1-1.2-1.6-2.7-1.2-1.3-2.5-1.9-1.4-0.6-1.5-0.4-0.7 0-1.4 0.2-0.7 0.2-0.6 0.3-0.3 0.2-0.2 0-0.6-0.2-0.4-0.3-5.7-5.3-1.4-1.7-0.8-0.7-0.8-0.3 0.3-0.4 3.5-6.5 0.4-1 0-1-1.4-8.3 0-0.9 1.3-4.6 0-0.8-0.6-0.6-0.8-0.5-2-0.9-1-0.5-0.8-0.7-0.5-0.9-0.2-0.6-0.1-0.8 0.1-0.7 0.1-0.3 0.3-0.8 0.2-0.4 0.2-0.2 0.2-0.2 0.3-0.3 16.4-8.4 0.7-0.5 0.3-0.8 0.1-1 0-2-0.3-2.2-0.4-1.1-0.1-0.7-0.1-0.8 0-1.9-0.1-1-0.3-0.9-0.9-0.9-7.1-5-0.4-0.6-0.1-0.4-0.4-2.1-0.2-0.6-0.2-0.5-0.2-0.3-0.7-0.6-0.7-0.4-2.3-1.1-0.3-0.2-2.9-2.8-0.9-0.5-0.6-0.3-1.2-0.1-0.3-0.1-0.3-0.1-1.9-1.5-1.1-0.5-0.7-0.2-2.2-1.1-0.5-0.3-0.9-1.1-1.9-3-0.3-0.2-0.5-0.1-3.2-0.1-0.9 0.2-0.9 0.5-5.3 4.7-0.9 0.6-0.8 0.1-0.9-0.3-2.9-1.3-0.7-0.6-0.3-0.8-0.1-0.8-0.3-7.4-0.2-0.8-0.5-0.6-0.8-0.6-5-2.7-0.9-0.7-0.8-0.9-1.3-3.8-0.5-0.8-1.1-1.2-0.5-0.7-0.3-0.8-1.9-9.8-0.6-1.9-2.3-4-0.3-1.2-0.3-8.3-0.8-2-3.7-2.2 4.7-13.2 2.2-2.5 23.1 3.6 9.8-0.1 4.5-2.4 1.2-0.3 1.1 0 10.4 0.2 3.4-0.3 10.6-3.8 23.5-13.2 20.3-7.7 93.9-61.5 16.9-5.2 23.5-16.2 19.5-7.1z" id="NE7" name="Zinder">
  </path>
  <path d="M200.1 708.7l-0.6 0.9-1.4 0.1-0.6 0.1-1.2-0.1-0.5 0.2-0.7 0.4-0.9 1.1-0.5 0.4-0.6 0.2-0.6-0.4-0.6 0.2-0.3 0.3-0.2 0.5-0.1 0.4-0.2 0.5-0.8 1.3-0.5 0.3-2.1-0.6-0.4 0.1-0.6 0.5-0.4 0.2-0.3 0-0.5-0.3-0.2-0.1-2 0.6-0.3 0.1-0.5 0.6-0.4 0.1-0.4 0.1-0.2-0.3-0.1-0.3-0.1-0.1-0.7-0.1-0.5 0-0.4 0.1-0.3 0.7-0.3 0.7-0.3-0.1-0.3-0.4-0.5-0.1-0.3 0.2-0.4 0.7-0.2 0.2-0.7 0-1.3 0-0.8 0.1-1.4 0.6-0.5 1 0 1.4 0.6 3.2 1.9 5.6 0.3 0.5 0.5 0.5 0.5 0.5 0.7 0.3 0.5 0.1 0.4 0.3 0.1 0.7 0 1-0.5 0.1-0.6-0.2-0.5 0.1-0.4 0.4-0.5 0.8-0.4 0.5-0.5 0.1-0.5-0.1-0.5 0.2-0.3 0.7 0.1 0.7 0.6 1 0.1 0.6-3-2.6-4.5-6.4-4.1-5.6-4.2-6.1-2.5-3.4-1.1-2.1 0.1-1.7 0.9-0.7 3.3-0.7 0.3-0.2 0.4-0.6 0.3-0.2 0.2 0 0.6 0.3 0.3 0.1 3.4-0.3 0.9-0.2 0.4-0.6-0.1-1.3 0-0.3 0.2-0.6 0-0.3-0.3-0.4-0.7-0.8-0.3-0.5-0.5-0.9-0.3-0.8-0.4-3.5-0.2-0.8-0.4-0.7-0.5-0.7-1-0.7-0.7-0.4-0.6-0.7-0.2-0.3-0.3-1.1-1.5-1.8-2.3-0.6-5.6-0.5-0.5 0.3-1 1.1-0.7 0.4-0.4-0.1-0.4-0.2-0.5 0.1-0.2 0.3-0.4 0.8-1 1.4-0.6 1.2-0.7 1-1 0.6-1 0.2-7.3-0.7-5.8-0.5-2-0.5-1.6-0.9-3.9-3.3-3.2-2.7-4.7-4-1.4-1.2-4.3-3.7-3.4-2.9-3.3-2.7-1.7-0.9-4.2-0.4-1.6-0.9-0.5-0.9-0.2-1.1 0-1.1 0-3.8 0-5.5-0.1-5 0.8-2.4 1.2 0.2 4.6 1.8 3.1 0.8 1.3 0.6 0.4-0.2 0.5-2 0.3-0.6 0.3-0.4 1.1 0.3 0.9 0.9 1.1 0.5 1.6-0.6-1.1-1.2-0.9-0.7-1-0.2-2.4-0.3-1-0.3-6.3-3-1.9-1.4-1.1-1.8-0.3-2.6-2.3-2.5-3.1-1.9-2.6-0.8-2.2 0.2-1 0-1.2-0.6-0.6-0.6-0.1-0.4 0.2-0.3 0-0.2 0-0.4 0-0.4-0.2-0.5-0.5-0.1-7.7 0.3-1.5-0.6-0.8-1.4 0.3-0.9 0.5-1.3 0.4-1.1-0.4-0.5-1.1-0.4-0.7-0.7-0.6-0.8-1.9-1.3-0.9-0.8-0.2-0.4-0.5-0.6-0.4-1.1-0.5-0.5-1.2-0.8-0.4-0.4 0-0.6 0.5-1.1 0-0.5-0.6-0.7-1-0.5-1-0.7-0.4-1-0.1-1.1-0.6-0.5-0.8-0.4-0.5-0.6 0-0.5 0.5-1 0-0.3-0.2-0.5-0.3-0.4-0.4-0.2-0.4-0.4-0.7-1.1-0.2-0.7 0.2-0.7 1.4-2.2 0.3-0.7 0.3-1.8 0.2-0.5 0.5-0.8 0.1-0.5-0.2-0.3-2.4-3.3-8.3-7.6-0.8-0.7-1.7-2.9-0.3-3 3.8-11-0.4-1.8-1.7-3.4 0.1-1.7 0.7-0.9 0.8-0.7 0.6-0.8-0.2-1.3-0.3-3 0-1.5 0.3-0.3 0.4-0.1 0.1-0.1 0.8 0.2 0.5 0.2 0.6 0.1 0.8 0.1 2.2 0.5 1.1 0.2 1 0.2 1 0.2 0.8 0.1 0.3 0.1 0.7 0.2 0.7-0.2 0.6-0.2 0.5-0.2 3.4-1 0.4-0.1 1.2-0.3 8.9 3.1 0.8 0 0.2 0 0.5 0 0.3 0 0.4-0.2 0.7-0.4 0.3-0.1 1-0.3 0.4 0 0.6-0.1 0.7 0 1.4-0.1 2-0.1 1-0.1 1.6-0.1 0.6 0 1-0.1 1.6-0.2 0.5-0.1 1.1-0.2 0.2 0 0.1 0 0.3-0.2 0.5-0.3 0.4-0.3 0.4-0.1 0.3-0.3 0.5-0.5 1.7-1.6 0.3-0.2 1.1-1 0.3-0.3 1.6-1.5 1.7-1.6 1.7-1.5 1.9-1.8 1.5-1.5 1.7-1.5 1.7-1.5 1.7-1.6 0.2-0.2 0.2-0.2 0.1 0 0.1-0.1 0.2-0.3 0.9-0.2 4.2-0.2 5.6-0.2 5.5-0.2 5.6-0.2 5.5-0.1 0.2 0 5.4-0.2 5.5-0.2 5.6-0.2 5.5-0.2 5.6-0.2 5.5-0.2 5.6-0.2 5.5-0.2 5.6-0.2 5.5-0.2 5.6-0.1 3-0.1 2.6-0.1 2.8-0.1 0.3-0.8 0-2.2 0.1-1.1 0.2-0.6 0.4-0.3 0.9-0.2 2.3-0.1 6.8 1.2 10.8 1.8 6 1.1 0.3 0.1 0.5 0.1 0.6-0.4 0.5-6.4 0.5-1.6 5.1-3.1 1.7-1.8 2.8-3.2 2.1-1.1 2.4-0.5 2.1-0.4 2.2-1.2 1.5-1.7 0.1-0.4 0.4 0.7 0.1 0.1 12.8 36.8-0.2 8.3 0.1 2.6 0.5 1.2 8.1 13.6-1 7.1-1.7 1.9-1.6 0.5-0.5 0.2-0.5 0.5-0.6 1.9-0.8 0.7-0.9 0.6-4.4 2.1-0.5 0.1-1.5-0.1-0.8 0.1-0.6 0.1-0.9 0.4-0.8 0.4-7.9 6.8-1.7 2.4-0.2 0.6-0.3 0.9-2.1 9-0.4 1.2-1.1 1.4-10.6 9.9-1.9 1.1-9.6 4.2-0.6 0.1-0.9-0.3-5.9-2.5-0.9-0.3-0.8 0-0.6 0.6-1 1.8-0.7 1.6-1 5-0.3 0.9-0.4 0.9-0.8 0.2-1 0.1-4 0-0.3 0.1-0.6 0.3-0.4 0.7-1.2 2.8-0.5 0.7-0.9 0.3-1.6 0.3-1.2 0.4-0.2 0.3-0.2 0.3-0.1 1.2-0.3 1.3-0.4 1.3-0.1 0.7 0 0.3 0.1 0.3 0.5 1.1 0.1 0.3 0 0.4-0.6 2.7-0.8 2.4-1.1 1.7-0.4 0.3-0.4 0.3-0.3 0-0.4-0.1-0.6-0.2-0.7-0.5-0.2-0.1-0.2 0-1.2-0.2-0.8 0-1.9 0.5-5 3.9-0.3 0.2-0.6 0.2-0.6 0.2-0.3 0.1-0.8 0-0.6-0.1-1.4-0.3-0.3-0.1-0.4 0.1-0.5 0.1-0.7 0.4-0.6 0.5-0.7 0.8-0.4 0.6-0.2 0.4-0.1 0.4 0 0.3 0.1 0.4 3.5 8 0.1 0.1 0.3 0 8.8 0.9 0.9 0.3 0.6 0.4 0.3 1-0.1 0.5-0.2 0.3-0.9 0.6-2 1.7-0.3 0.1-1.3 0.7-0.9 0.6-0.8 0.8-0.4 0.4-0.2 0.4-0.1 0.3-0.1 0.8 0.1 0.7 0.1 0.7 1 3.8 0.1 0.7 0 0.7-0.2 1.2-0.3 1.3 0 1.6 0.3 4 0.2 1.1 0.2 0.7 0 1.6 0.2 0.6 2.3 0 0.1 0.1 0.3 0.2 0.3-0.1 0.2-0.4 0.1-0.4 0.1-0.4 0.3-0.4 0.2-0.3 0.6-0.1 0.5 0.2 0.4 0.5 0.1 0.9 0.1 1.4 0.2 1.7 0.6 1.3 1.3 0.6 1.2 0.3 2.1 1.2 1.2 0.5z m-41.6-71.8l-2.7-0.6-2.3 0-2 0.8-1.2 1.5-0.3 1.4 0.1 2.1 1.1 2.2 1.3 1.9 1.7 1.7 2 0.7 2.1 0.3 1.8 0.2 1.8-0.2 0.4 0.8 0.3 1.1 0.4 0.9 1.2-0.9 1-0.7 1.1-2.3 0.7-2.6 0.5-2.4 0.1-1.8-0.1-1.5-0.9-0.6-1.4 0.4-0.6-0.7 0.1-1.8-0.5-0.2-2.6 0.2-3.1 0.1z" id="NE6" name="Tillabéri">
  </path>
  <path d="M420.2 529.3l-3.4-34.1 1.3-9.7-0.1-1-0.2-0.8-1-0.5-8.9-2.4-0.4-0.1-0.8-0.5-3.9-3-0.3-0.4-0.4-0.4-0.9-1.8-0.2-0.6-12.6-30.4-0.2-0.4-5.1-5.8-12.9-9.8-30.7-19.4-1.2-1-1.3-1.2-7.6-10.4-10-8.4-0.8-0.8-0.4-0.9-1.2-6.1-0.4-0.8-0.8-0.3-6.1-0.5-1-0.2-0.9-0.4-0.5-1.1-0.3-0.7-0.2-0.6-0.1-0.3 0-0.8 0.4-0.7 1.7-2.7 0.1-0.8-0.6-7.2 0.1-0.3 0.4-1.3 0.1-0.3 0-0.4 0-0.3-0.2-0.7-0.3-0.9-0.2-1.4-0.1-0.7 0-0.4 0.1-0.4 0.5-1.5 7.5-15.8-5.4-1.6-30.2-0.4-0.1 0-0.7 0 0-0.1 0-7.5-0.1-7.5 0-7.5 0-7.2 0-0.4 10.8-2.2 10.9-2.2 10.8-2.2 10.9-2.2 5.7-1.1 12.6-2.6 12.6-2.5 5.7-1.2 7.4-1.5 2.6-1 2.5-1.7 4.5-4.2 3.6-3.3 3.7-3.3 3.6-3.3 3.6-3.3 3.6-3.3 3.6-3.3 3.7-3.3 3.6-3.4 3.6-3.3 3.6-3.3 3.7-3.3 3.6-3.3 3.6-3.4 3.6-3.3 3.7-3.3 3.6-3.3 3.3-3.1 2.2-1.9 4.4-3.9 4.1-3.6 4.1-3.6 4.1-3.5 4.1-3.6 5.7-5 7.6-4.7 3.9-2.5 3.6-2.3 0.3-0.2 3.9-2.4 3.9-2.5 3.9-2.5 3.9-2.5 3.9-2.4 3.9-2.5 4-2.5 3.9-2.5 3.9-2.4 3.9-2.5 1.2-0.8 15.4-10 85.4-54.5 3-1.9 29.6-18.5 2.3-1.4 3.9-2.5 3.9-2.5 3.9-2.5 3.9-2.6 3.9-2.5 3.9-2.5 4-2.5 3.9-2.5 3.9-2.5 3.9-2.5 3.9-2.5 3.9-2.5 3.9-2.5 3.9-2.5 3.9-2.6 4-2.5 3.9-2.5 1.5 0.4 3.5 0.9 5.1 1.2 5.1 1.2 5.1 1.3 5 1.2 5.1 1.2 5.1 1.2 5 1.3 5.1 1.2 5.1 1.2 5 1.3 5.1 1.2 5.1 1.2 5.1 1.3 5 1.2 5.1 1.2 5.8 1.5 6.8 3.7 3.2 2.9 7.2 6.5 7.2 6.4 7.2 6.4 7.2 6.4 2.6 2.4 0.8 0.4 0.9-0.1 3.7-2 9.8-5.4 9.8-5.3 9.8-5.4 9.9-5.4 0.7 3.9 0.7 3.9 0.7 3.9 0.7 3.9 0.7 3.9 0.7 3.9 0.7 3.9 0.6 3.9 0.7 3.9 0.7 3.9 0.7 3.9 0.7 3.9 0.7 3.8 0.7 3.9 0.5 2.7 0.4 2.6 0.5 2.5 0 1.2 0 3.3 0.1 4.5 0.1 5.2 0.1 5.3 0.1 4.5 0 3.2 0 1.3 0 1.6 0.3 1 0.9 0.9 2.7 1.4 1.1 0.8 2 2.4 1.3 2.2 1 1.5 1 1.5 0.9 1.5 1 1.5 1 1.5 0.9 1.5 1 1.5 0.9 1.5 1 1.6 1 1.5 0.9 1.5 1 1.5 1 1.5 0.9 1.5 1 1.5 0.9 1.5 1 1.5-2.3 1.3-1.4 2.4-0.5 2.9 0.5 2.7 0.6 1.6 0.9 1.3 1 1.2 4.7 3.7 1.6 1.8 3.3 3.8 3.4 3.7 2.2 2.5 1.1 1.2 1.3 1.5 2 2.3 1.4 1.5 0.8 1.3 0.1 1-0.4 1.1-1.2 2.1-2.3 4.3-2.3 4.2-2.3 4.2-2.3 4.2-0.8 1.6-0.8 2.1-1 2.7-0.2 2.6-0.3 2.8-0.2 2.7-0.2 2.8-0.2 2.3-0.1 0.5 0 0.9-0.2 1.9-0.2 2.8-0.3 2.8-0.2 2.8-0.2 2.7-0.2 2.8-0.3 2.8-0.2 2.8-0.2 2.8-0.3 2.7-0.2 2.8-0.2 2.8-0.3 2.8-0.2 2.7-0.2 2.8-0.3 2.8-0.2 2.7-0.2 2.8-0.3 2.8-0.2 2.8-0.2 2.7-0.3 2.8-0.2 2.8-0.2 2.7-0.3 2.8-0.2 2.8-0.2 2.7-0.3 2.8-0.2 2.8-0.2 2.7-0.2 2.8-0.3 2.7-0.2 2.8-0.2 2.8-0.3 2.7-0.2 2.8-0.2 2.2-0.5 0-147.1 0-43.8 20.7-11.7 8-0.9 0.8-1.2 0.7-19.5 7.1-23.5 16.2-16.9 5.2-93.9 61.5-20.3 7.7-23.5 13.2-10.6 3.8-3.4 0.3-10.4-0.2-1.1 0-1.2 0.3-4.5 2.4-9.8 0.1-23.1-3.6-2.2 2.5-4.7 13.2-11.5-6.2-3-0.2-22.9 0.8z" id="NE1" name="Agadez">
  </path>
  <path d="M158.5 636.9l3.1-0.1 2.6-0.2 0.5 0.2-0.1 1.8 0.6 0.7 1.4-0.4 0.9 0.6 0.1 1.5-0.1 1.8-0.5 2.4-0.7 2.6-1.1 2.3-1 0.7-1.2 0.9-0.4-0.9-0.3-1.1-0.4-0.8-1.8 0.2-1.8-0.2-2.1-0.3-2-0.7-1.7-1.7-1.3-1.9-1.1-2.2-0.1-2.1 0.3-1.4 1.2-1.5 2-0.8 2.3 0 2.7 0.6z" id="NE8" name="Niamey">
  </path>
 </g>
 <g id="points">
  <circle class="12.286851944793613|0.9438101599054242" cx="90.9" cy="715.3" id="0">
  </circle>
  <circle class="17.015483254427252|8.852500548798517" cx="545.5" cy="434.3" id="1">
  </circle>
  <circle class="22.926272391469304|15.179452859912992" cx="909.1" cy="72.7" id="2">
  </circle>
 </g>
 <g id="label_points">
  <circle class="Tahoua" cx="339" cy="514.1" id="NE5">
  </circle>
  <circle class="Dosso" cx="239.9" cy="661.2" id="NE3">
  </circle>
  <circle class="Diffa" cx="795.5" cy="482.1" id="NE2">
  </circle>
  <circle class="Maradi" cx="450.3" cy="614.7" id="NE4">
  </circle>
  <circle class="Zinder" cx="614.4" cy="558.4" id="NE7">
  </circle>
  <circle class="Tillabéri" cx="163.9" cy="586.6" id="NE6">
  </circle>
  <circle class="Agadez" cx="635.3" cy="275" id="NE1">
  </circle>
  <circle class="Niamey" cx="159.1" cy="643" id="NE8">
  </circle>
 </g>
</svg>